# xmcd
#
# Track frame offsets:
#	150
#	12293
#	27273
#	40954
#	55703
#	66598
#	80949
#	92751
#	104896
#	118732
#
# Disc length: 1731 seconds
#
# Revision: 0
# Processed by: cddbd v1.5.1PL2 Copyright (c) Steve Scherf et al.
# Submitted via: EasyCDDAExtractor 4.6.9.1
#
DISCID=8e06c10a
DTITLE=Merle Haggard and Leona Williams - Heart To Heart
DYEAR=1983
DGENRE=Country
TTITLE0=Heart To Heart Talk
TTITLE1=Sally Let Your Bangs Hang Down
TTITLE2=I'll Never Be Free
TTITLE3=It's Cold In California
TTITLE4=Don't Ever Let Your Lover Sleep Alone
TTITLE5=Waitin' On The Good Life To Come
TTITLE6=We're Strangers Again
TTITLE7=Waltz Across Texas
TTITLE8=You Can't Break The Chains Of Love
TTITLE9=Let's Pretend We're Not Married Tonight
EXTD=
EXTT0=
EXTT1=
EXTT2=
EXTT3=
EXTT4=
EXTT5=
EXTT6=
EXTT7=
EXTT8=
EXTT9=
PLAYORDER=
